<svg width="100" height="100" xmlns="http://www.w3.org/2000/svg" overflow="visible"><path d="M 88.19 17.72 C 89.9 17.99, 74.09 28.88, 75.52 30.98 C 77 33.16, 95.17 23.9, 94.01 26.27 C 92.22 29.95, 75.85 35.43, 69.62 43.07 C 67.77 45.33, 76.45 43.59, 77.86 46.08 C 78.92 47.95, 72.48 50.19, 74.57 51.8 C 82.82 58.14, 96.76 58.05, 98.55 61.97 C 99.8 64.7, 81.99 61.71, 80.64 65.1 C 79.45 68.08, 91.98 69.2, 93.46 74.71 C 94.62 79.04, 89.91 79.94, 85.92 84.78 C 84.44 86.58, 84.32 88.87, 82.52 87.98 C 74.57 84.03, 74.84 80.77, 66.41 75.09 C 64.44 73.76, 61.45 72.23, 61.72 73.97 C 62.91 81.8, 70.74 92.69, 69.32 94.24 C 68.05 95.62, 61.86 79.58, 56.33 79.83 C 51.4 80.06, 54.17 89.77, 48.4 95.2 C 44.39 98.97, 40.43 99.4, 36.77 98.22 C 34.72 97.56, 37.05 94.86, 36.98 91.51 C 36.92 88.34, 37.96 84.59, 36.51 85.17 C 33.59 86.34, 30.56 95.12, 28.24 95.02 C 26.4 94.94, 27.67 89.87, 28.2 84.82 C 28.92 78.05, 32.53 72.85, 30.74 71.39 C 29.14 70.09, 23.52 80.38, 21.43 79.29 C 19.32 78.19, 25.35 67.85, 22.34 67.01 C 18.05 65.82, 13.28 75.05, 6.83 75.23 C 3.7 75.31, 1.28 70.35, 3.17 67.53 C 7.42 61.2, 19.87 61.4, 19.11 56.94 C 18.29 52.11, 8.67 53.51, 0.01 48.94 C -0.84 48.49, 0.06 47.93, 0.1 46.91 C 0.1 46.88, 0.07 46.84, 0.1 46.84 C 13.48 46.53, 22.38 47.23, 26.92 46.29 C 29.19 45.82, 19.17 47.24, 13.72 44.03 C 7.32 40.26, 0.93 33.59, 3.22 32.33 C 6.45 30.54, 16.66 36.1, 24.76 37.92 C 25.95 38.19, 21.29 36.98, 21.8 36.5 C 22.73 35.63, 26.86 36.7, 27.65 35.23 C 28.32 33.99, 26.39 32.99, 24.72 31.08 C 18.61 24.07, 16.42 24.23, 12.1 17.39 C 11.29 16.11, 13.24 16.07, 14.46 14.83 C 15.54 13.73, 15.58 13.77, 16.7 12.71 C 16.77 12.64, 16.75 12.6, 16.84 12.58 C 19.34 12.09, 19.66 10.69, 21.89 11.7 C 30.25 15.51, 30.05 19.2, 38.02 22.22 C 40.02 22.98, 41.66 21.38, 41.83 19.26 C 42.27 13.76, 38.21 6.88, 39.23 6.98 C 40.41 7.09, 42.93 21.02, 46.23 19.68 C 51.12 17.69, 50.54 4.56, 55.6 0.31 C 57.68 -1.44, 56.94 6.6, 60.51 7.68 C 65.57 9.21, 71.66 1.82, 72.86 5.53 C 75.23 12.85, 63.75 26.62, 67.66 29.73 C 71.42 32.72, 85.97 17.37, 88.19 17.72" fill="blue" stroke="black" stroke-width="3"></path></svg>